<?xml version="1.0" standalone="no"?>
<!DOCTYPE svg PUBLIC "-//W3C//DTD SVG 20010904//EN"
 "http://www.w3.org/TR/2001/REC-SVG-20010904/DTD/svg10.dtd">
<svg version="1.0" xmlns="http://www.w3.org/2000/svg"
 width="607.000000pt" height="607.000000pt" viewBox="0 0 607.000000 607.000000"
 preserveAspectRatio="xMidYMid meet">
<metadata>
Created by potrace 1.14, written by Peter Selinger 2001-2017
</metadata>
<g transform="translate(0.000000,607.000000) scale(0.100000,-0.100000)"
fill="#000000" stroke="none">
<path d="M3086 5593 c-1 -1 -31 -4 -66 -7 -36 -3 -76 -8 -90 -11 -14 -3 -101
-8 -195 -11 -93 -3 -182 -10 -197 -16 -29 -11 -46 -47 -42 -91 2 -22 -6 -39
-34 -68 -34 -35 -43 -39 -102 -43 -51 -4 -73 -12 -109 -37 -100 -71 -169 -166
-233 -320 -28 -68 -59 -136 -70 -152 -16 -22 -64 -57 -88 -62 -9 -2 -74 -16
-90 -19 -8 -2 -26 -6 -40 -9 -14 -4 -41 -9 -60 -12 -19 -2 -46 -7 -60 -9 -34
-6 -85 -14 -145 -21 -27 -4 -58 -9 -67 -11 -10 -3 -39 -7 -65 -9 -50 -4 -104
-11 -163 -20 -19 -2 -55 -7 -80 -9 -56 -6 -137 -16 -170 -22 -14 -2 -47 -7
-75 -10 -27 -3 -53 -8 -56 -10 -4 -2 -24 -6 -45 -10 -93 -14 -245 -55 -280
-75 -59 -34 -112 -59 -124 -59 -24 0 -69 -58 -79 -101 -6 -25 -25 -76 -43
-115 -18 -38 -33 -73 -35 -79 -1 -5 -13 -40 -27 -78 -14 -37 -28 -82 -31 -100
-4 -17 -10 -48 -14 -67 -4 -19 -6 -80 -4 -135 2 -55 5 -437 7 -850 4 -953 12
-1192 42 -1313 19 -80 81 -208 109 -228 10 -8 17 -14 14 -14 -13 0 261 -271
311 -308 104 -76 230 -128 366 -151 114 -19 359 -17 531 4 21 3 63 7 93 9 129
11 145 20 157 91 8 47 30 81 65 103 29 18 131 53 192 67 11 2 51 11 87 19 36
8 77 17 90 20 13 3 35 7 49 10 13 3 42 8 64 12 22 3 43 7 46 9 3 1 25 6 50 9
43 6 61 9 120 21 14 2 48 7 75 10 28 3 73 10 100 15 55 10 111 17 197 26 76 8
81 8 94 17 6 3 31 -12 55 -35 94 -88 157 -146 239 -218 46 -41 96 -86 111
-100 15 -14 36 -32 46 -40 231 -191 268 -215 546 -359 145 -74 250 -117 310
-126 12 -2 33 -6 47 -9 67 -15 128 -20 280 -20 91 0 183 3 205 8 22 4 52 9 67
12 15 2 38 8 52 14 15 5 26 7 26 4 0 -4 6 -2 13 4 6 5 28 13 47 17 19 4 40 10
45 13 6 4 15 7 20 8 18 3 163 73 223 108 136 80 294 216 396 339 17 22 41 51
54 65 12 15 25 35 28 45 3 9 10 17 15 17 5 0 9 7 9 15 0 8 3 15 8 15 9 0 11 3
95 171 37 75 70 144 72 155 3 10 16 57 31 104 80 263 77 573 -9 825 -29 84
-97 227 -118 245 -3 3 -15 21 -26 40 -12 19 -30 44 -40 55 -10 11 -34 41 -53
68 -19 26 -42 57 -52 68 -9 11 -31 39 -49 62 -105 133 -422 398 -631 526 -21
12 -38 28 -39 34 0 7 -1 138 -3 292 -2 154 -6 291 -9 305 -4 14 -9 43 -12 65
-4 22 -8 49 -10 60 -2 11 -6 34 -9 50 -15 86 -58 220 -92 290 -27 52 -97 140
-151 188 -27 24 -30 32 -23 56 4 16 5 33 1 40 -4 6 -6 46 -5 88 1 58 -3 83
-14 96 -59 68 -447 157 -655 152 -72 -2 -103 -19 -109 -57 -2 -15 -20 -3 -88
64 -47 46 -107 102 -135 124 -49 39 -179 124 -190 124 -4 0 -34 20 -68 44 -34
24 -89 59 -122 77 -53 30 -69 34 -133 34 -41 0 -75 -1 -76 -2z"/>
</g>
</svg>
